<svg width="180" height="42" viewBox="0 0 180 42" fill="none" xmlns="http://www.w3.org/2000/svg">
<path d="M51.9346 17.9902V19.2383H46.793V17.9902H51.9346ZM48.5332 15.6787H50.1592V25.1445C50.1592 25.4668 50.209 25.71 50.3086 25.874C50.4082 26.0381 50.5371 26.1465 50.6953 26.1992C50.8535 26.252 51.0234 26.2783 51.2051 26.2783C51.3398 26.2783 51.4805 26.2666 51.627 26.2432C51.7793 26.2139 51.8936 26.1904 51.9697 26.1729L51.9785 27.5C51.8496 27.541 51.6797 27.5791 51.4688 27.6143C51.2637 27.6553 51.0146 27.6758 50.7217 27.6758C50.3232 27.6758 49.957 27.5967 49.623 27.4385C49.2891 27.2803 49.0225 27.0166 48.8232 26.6475C48.6299 26.2725 48.5332 25.7686 48.5332 25.1357V15.6787ZM57.7881 27.6758C57.126 27.6758 56.5254 27.5645 55.9863 27.3418C55.4531 27.1133 54.9932 26.7939 54.6064 26.3838C54.2256 25.9736 53.9326 25.4873 53.7275 24.9248C53.5225 24.3623 53.4199 23.7471 53.4199 23.0791V22.71C53.4199 21.9365 53.5342 21.248 53.7627 20.6445C53.9912 20.0352 54.3018 19.5195 54.6943 19.0977C55.0869 18.6758 55.5322 18.3564 56.0303 18.1396C56.5283 17.9229 57.0439 17.8145 57.5771 17.8145C58.2568 17.8145 58.8428 17.9316 59.335 18.166C59.833 18.4004 60.2402 18.7285 60.5566 19.1504C60.873 19.5664 61.1074 20.0586 61.2598 20.627C61.4121 21.1895 61.4883 21.8047 61.4883 22.4727V23.2021H54.3867V21.875H59.8623V21.752C59.8389 21.3301 59.751 20.9199 59.5986 20.5215C59.4521 20.123 59.2178 19.7949 58.8955 19.5371C58.5732 19.2793 58.1338 19.1504 57.5771 19.1504C57.208 19.1504 56.8682 19.2295 56.5576 19.3877C56.2471 19.54 55.9805 19.7686 55.7578 20.0732C55.5352 20.3779 55.3623 20.75 55.2393 21.1895C55.1162 21.6289 55.0547 22.1357 55.0547 22.71V23.0791C55.0547 23.5303 55.1162 23.9551 55.2393 24.3535C55.3682 24.7461 55.5527 25.0918 55.793 25.3906C56.0391 25.6895 56.335 25.9238 56.6807 26.0938C57.0322 26.2637 57.4307 26.3486 57.876 26.3486C58.4502 26.3486 58.9365 26.2314 59.335 25.9971C59.7334 25.7627 60.082 25.4492 60.3809 25.0566L61.3652 25.8389C61.1602 26.1494 60.8994 26.4453 60.583 26.7266C60.2666 27.0078 59.877 27.2363 59.4141 27.4121C58.957 27.5879 58.415 27.6758 57.7881 27.6758ZM64.4854 17.9902L66.5684 21.4531L68.6777 17.9902H70.585L67.4736 22.6836L70.6816 27.5H68.8008L66.6035 23.9316L64.4062 27.5H62.5166L65.7158 22.6836L62.6133 17.9902H64.4854ZM76.2979 17.9902V19.2383H71.1562V17.9902H76.2979ZM72.8965 15.6787H74.5225V25.1445C74.5225 25.4668 74.5723 25.71 74.6719 25.874C74.7715 26.0381 74.9004 26.1465 75.0586 26.1992C75.2168 26.252 75.3867 26.2783 75.5684 26.2783C75.7031 26.2783 75.8438 26.2666 75.9902 26.2432C76.1426 26.2139 76.2568 26.1904 76.333 26.1729L76.3418 27.5C76.2129 27.541 76.043 27.5791 75.832 27.6143C75.627 27.6553 75.3779 27.6758 75.085 27.6758C74.6865 27.6758 74.3203 27.5967 73.9863 27.4385C73.6523 27.2803 73.3857 27.0166 73.1865 26.6475C72.9932 26.2725 72.8965 25.7686 72.8965 25.1357V15.6787ZM82.6611 14H84.2959V25.6543L84.1553 27.5H82.6611V14ZM90.7207 22.666V22.8506C90.7207 23.542 90.6387 24.1836 90.4746 24.7754C90.3105 25.3613 90.0703 25.8711 89.7539 26.3047C89.4375 26.7383 89.0508 27.0752 88.5938 27.3154C88.1367 27.5557 87.6123 27.6758 87.0205 27.6758C86.417 27.6758 85.8867 27.5732 85.4297 27.3682C84.9785 27.1572 84.5977 26.8555 84.2871 26.4629C83.9766 26.0703 83.7275 25.5957 83.54 25.0391C83.3584 24.4824 83.2324 23.8555 83.1621 23.1582V22.3496C83.2324 21.6465 83.3584 21.0166 83.54 20.46C83.7275 19.9033 83.9766 19.4287 84.2871 19.0361C84.5977 18.6377 84.9785 18.3359 85.4297 18.1309C85.8809 17.9199 86.4053 17.8145 87.0029 17.8145C87.6006 17.8145 88.1309 17.9316 88.5938 18.166C89.0566 18.3945 89.4434 18.7227 89.7539 19.1504C90.0703 19.5781 90.3105 20.0908 90.4746 20.6885C90.6387 21.2803 90.7207 21.9395 90.7207 22.666ZM89.0859 22.8506V22.666C89.0859 22.1914 89.042 21.7461 88.9541 21.3301C88.8662 20.9082 88.7256 20.5391 88.5322 20.2227C88.3389 19.9004 88.084 19.6484 87.7676 19.4668C87.4512 19.2793 87.0615 19.1855 86.5986 19.1855C86.1885 19.1855 85.8311 19.2559 85.5264 19.3965C85.2275 19.5371 84.9727 19.7275 84.7617 19.9678C84.5508 20.2021 84.3779 20.4717 84.2432 20.7764C84.1143 21.0752 84.0176 21.3857 83.9531 21.708V23.8262C84.0469 24.2363 84.1992 24.6318 84.4102 25.0127C84.627 25.3877 84.9141 25.6953 85.2715 25.9355C85.6348 26.1758 86.083 26.2959 86.6162 26.2959C87.0557 26.2959 87.4307 26.208 87.7412 26.0322C88.0576 25.8506 88.3125 25.6016 88.5059 25.2852C88.7051 24.9688 88.8516 24.6025 88.9453 24.1865C89.0391 23.7705 89.0859 23.3252 89.0859 22.8506ZM98.5957 25.3027V17.9902H100.23V27.5H98.6748L98.5957 25.3027ZM98.9033 23.2988L99.5801 23.2812C99.5801 23.9141 99.5127 24.5 99.3779 25.0391C99.249 25.5723 99.0381 26.0352 98.7451 26.4277C98.4521 26.8203 98.0684 27.1279 97.5938 27.3506C97.1191 27.5674 96.542 27.6758 95.8623 27.6758C95.3994 27.6758 94.9746 27.6084 94.5879 27.4736C94.207 27.3389 93.8789 27.1309 93.6035 26.8496C93.3281 26.5684 93.1143 26.2021 92.9619 25.751C92.8154 25.2998 92.7422 24.7578 92.7422 24.125V17.9902H94.3682V24.1426C94.3682 24.5703 94.415 24.9248 94.5088 25.2061C94.6084 25.4814 94.7402 25.7012 94.9043 25.8652C95.0742 26.0234 95.2617 26.1348 95.4668 26.1992C95.6777 26.2637 95.8945 26.2959 96.1172 26.2959C96.8086 26.2959 97.3564 26.1641 97.7607 25.9004C98.165 25.6309 98.4551 25.2705 98.6309 24.8193C98.8125 24.3623 98.9033 23.8555 98.9033 23.2988ZM106.69 17.9902V19.2383H101.549V17.9902H106.69ZM103.289 15.6787H104.915V25.1445C104.915 25.4668 104.965 25.71 105.064 25.874C105.164 26.0381 105.293 26.1465 105.451 26.1992C105.609 26.252 105.779 26.2783 105.961 26.2783C106.096 26.2783 106.236 26.2666 106.383 26.2432C106.535 26.2139 106.649 26.1904 106.726 26.1729L106.734 27.5C106.605 27.541 106.436 27.5791 106.225 27.6143C106.02 27.6553 105.771 27.6758 105.478 27.6758C105.079 27.6758 104.713 27.5967 104.379 27.4385C104.045 27.2803 103.778 27.0166 103.579 26.6475C103.386 26.2725 103.289 25.7686 103.289 25.1357V15.6787ZM112.579 17.9902V19.2383H107.438V17.9902H112.579ZM109.178 15.6787H110.804V25.1445C110.804 25.4668 110.854 25.71 110.953 25.874C111.053 26.0381 111.182 26.1465 111.34 26.1992C111.498 26.252 111.668 26.2783 111.85 26.2783C111.984 26.2783 112.125 26.2666 112.271 26.2432C112.424 26.2139 112.538 26.1904 112.614 26.1729L112.623 27.5C112.494 27.541 112.324 27.5791 112.113 27.6143C111.908 27.6553 111.659 27.6758 111.366 27.6758C110.968 27.6758 110.602 27.5967 110.268 27.4385C109.934 27.2803 109.667 27.0166 109.468 26.6475C109.274 26.2725 109.178 25.7686 109.178 25.1357V15.6787ZM113.88 22.8506V22.6484C113.88 21.9629 113.979 21.3271 114.179 20.7412C114.378 20.1494 114.665 19.6367 115.04 19.2031C115.415 18.7637 115.869 18.4238 116.402 18.1836C116.936 17.9375 117.533 17.8145 118.195 17.8145C118.863 17.8145 119.464 17.9375 119.997 18.1836C120.536 18.4238 120.993 18.7637 121.368 19.2031C121.749 19.6367 122.039 20.1494 122.238 20.7412C122.438 21.3271 122.537 21.9629 122.537 22.6484V22.8506C122.537 23.5361 122.438 24.1719 122.238 24.7578C122.039 25.3438 121.749 25.8564 121.368 26.2959C120.993 26.7295 120.539 27.0693 120.006 27.3154C119.479 27.5557 118.881 27.6758 118.213 27.6758C117.545 27.6758 116.944 27.5557 116.411 27.3154C115.878 27.0693 115.421 26.7295 115.04 26.2959C114.665 25.8564 114.378 25.3438 114.179 24.7578C113.979 24.1719 113.88 23.5361 113.88 22.8506ZM115.506 22.6484V22.8506C115.506 23.3252 115.562 23.7734 115.673 24.1953C115.784 24.6113 115.951 24.9805 116.174 25.3027C116.402 25.625 116.687 25.8799 117.026 26.0674C117.366 26.249 117.762 26.3398 118.213 26.3398C118.658 26.3398 119.048 26.249 119.382 26.0674C119.722 25.8799 120.003 25.625 120.226 25.3027C120.448 24.9805 120.615 24.6113 120.727 24.1953C120.844 23.7734 120.902 23.3252 120.902 22.8506V22.6484C120.902 22.1797 120.844 21.7373 120.727 21.3213C120.615 20.8994 120.445 20.5273 120.217 20.2051C119.994 19.877 119.713 19.6191 119.373 19.4316C119.039 19.2441 118.646 19.1504 118.195 19.1504C117.75 19.1504 117.357 19.2441 117.018 19.4316C116.684 19.6191 116.402 19.877 116.174 20.2051C115.951 20.5273 115.784 20.8994 115.673 21.3213C115.562 21.7373 115.506 22.1797 115.506 22.6484ZM126.202 20.0205V27.5H124.576V17.9902H126.114L126.202 20.0205ZM125.815 22.3848L125.139 22.3584C125.145 21.708 125.241 21.1074 125.429 20.5566C125.616 20 125.88 19.5166 126.22 19.1064C126.56 18.6963 126.964 18.3799 127.433 18.1572C127.907 17.9287 128.432 17.8145 129.006 17.8145C129.475 17.8145 129.896 17.8789 130.271 18.0078C130.646 18.1309 130.966 18.3301 131.229 18.6055C131.499 18.8809 131.704 19.2383 131.845 19.6777C131.985 20.1113 132.056 20.6416 132.056 21.2686V27.5H130.421V21.251C130.421 20.7529 130.348 20.3545 130.201 20.0557C130.055 19.751 129.841 19.5312 129.56 19.3965C129.278 19.2559 128.933 19.1855 128.522 19.1855C128.118 19.1855 127.749 19.2705 127.415 19.4404C127.087 19.6104 126.803 19.8447 126.562 20.1436C126.328 20.4424 126.144 20.7852 126.009 21.1719C125.88 21.5527 125.815 21.957 125.815 22.3848Z" fill="#122359"/>
</svg>
