<svg width="38" height="38" viewBox="0 0 38 38" fill="none" xmlns="http://www.w3.org/2000/svg">
<path d="M19 11.875C20.3117 11.875 21.375 10.8117 21.375 9.5C21.375 8.18832 20.3117 7.125 19 7.125C17.6883 7.125 16.625 8.18832 16.625 9.5C16.625 10.8117 17.6883 11.875 19 11.875Z" fill="black"/>
<path d="M19 20.625C20.3117 20.625 21.375 19.5617 21.375 18.25C21.375 16.9383 20.3117 15.875 19 15.875C17.6883 15.875 16.625 16.9383 16.625 18.25C16.625 19.5617 17.6883 20.625 19 20.625Z" fill="black"/>
<path d="M19 29.375C20.3117 29.375 21.375 28.3117 21.375 27C21.375 25.6883 20.3117 24.625 19 24.625C17.6883 24.625 16.625 25.6883 16.625 27C16.625 28.3117 17.6883 29.375 19 29.375Z" fill="black"/>
</svg>
