<svg width="28" height="28" viewBox="0 0 28 28" fill="none" xmlns="http://www.w3.org/2000/svg">
<path d="M25.6654 14.0007C25.6654 17.0948 24.4362 20.0623 22.2483 22.2502C20.0604 24.4382 17.0929 25.6673 13.9987 25.6673C10.9045 25.6673 7.93704 24.4382 5.74912 22.2502C3.56119 20.0623 2.33203 17.0948 2.33203 14.0007C2.33203 10.9065 3.56119 7.939 5.74912 5.75107C7.93704 3.56315 10.9045 2.33398 13.9987 2.33398C17.0929 2.33398 20.0604 3.56315 22.2483 5.75107C24.4362 7.939 25.6654 10.9065 25.6654 14.0007ZM14.7279 8.89648C14.7279 8.7031 14.651 8.51763 14.5143 8.38089C14.3776 8.24414 14.1921 8.16732 13.9987 8.16732C13.8053 8.16732 13.6198 8.24414 13.4831 8.38089C13.3464 8.51763 13.2695 8.7031 13.2695 8.89648V13.2715H8.89453C8.70114 13.2715 8.51568 13.3483 8.37893 13.4851C8.24219 13.6218 8.16536 13.8073 8.16536 14.0007C8.16536 14.194 8.24219 14.3795 8.37893 14.5163C8.51568 14.653 8.70114 14.7298 8.89453 14.7298H13.2695V19.1048C13.2695 19.2982 13.3464 19.4837 13.4831 19.6204C13.6198 19.7572 13.8053 19.834 13.9987 19.834C14.1921 19.834 14.3776 19.7572 14.5143 19.6204C14.651 19.4837 14.7279 19.2982 14.7279 19.1048V14.7298H19.1029C19.2963 14.7298 19.4817 14.653 19.6185 14.5163C19.7552 14.3795 19.832 14.194 19.832 14.0007C19.832 13.8073 19.7552 13.6218 19.6185 13.4851C19.4817 13.3483 19.2963 13.2715 19.1029 13.2715H14.7279V8.89648Z" fill="#334D90"/>
</svg>
